<?xml version="1.0" encoding="UTF-8"?>
<svg id="Image" xmlns="http://www.w3.org/2000/svg" viewBox="0 0 1000 1000">
  <rect x="123.5" y="190.5" width="754" height="620" rx="19.66" ry="19.66" style="fill: none; stroke: #000; stroke-miterlimit: 10; stroke-width: 13.55px;"/>
  <path d="m614,805l-244.66,2.08-225.34,1.92s-27-2-17-35c0,0,77-172,204-208,40.68-11.53,84.33,8.84,124.87,41.87,86.06,70.07,158.13,197.13,158.13,197.13Z" style="fill: none; stroke: #000; stroke-miterlimit: 10; stroke-width: 13.55px;"/>
  <path d="m794.06,619.56c-9.98-19.31-21.64-38.08-35.25-55.14-26.13-32.79-59.44-59.26-101.74-71.08-1.08-.3-2.17-.6-3.27-.88,8.86-53.21,55.11-93.77,110.84-93.77,62.07,0,112.39,50.32,112.39,112.39,0,25.22-8.31,48.52-22.35,67.26-5.4-1.77-11.66-2.81-18.68-2.34-30,2-42,36-42,36" style="fill: none; stroke: #000; stroke-miterlimit: 10; stroke-width: 15.78px;"/>
  <path d="m854.68,579.34c14.53,4.74,21.32,14.66,21.32,14.66v198s-4.16,16.5-22,17c0,0-27-125-50-176-1.41-3.13-7.69-21.97-10-23" style="fill: none; stroke: #000; stroke-miterlimit: 10; stroke-width: 15.78px;"/>
  <path d="m794.06,620.56c45.32,87.68,55.94,186.44,55.94,186.44l-470,4s-5.53-.41-10.66-3.92l244.66-2.08s-72.07-127.06-158.13-197.13c45.68-65.11,103.64-123.48,163.13-119.87,12.22.74,23.81,2.61,34.8,5.46,1.1.28,2.19.58,3.27.88,42.3,11.82,75.61,38.29,101.74,71.08,13.61,17.06,25.27,35.83,35.25,55.14Z" style="fill: none; stroke: #000; stroke-miterlimit: 10; stroke-width: 15.78px;"/>
  <path d="m332.65,324.9c-8.36-1.26-15.87-4.67-22.1-9.46-9.93,7.46-22.68,11.75-35.54,11.75-11.85,0-23.67-3.64-33.24-10.11-7.09,6.28-16.49,10.11-26.78,10.11-22.08,0-39.99-17.57-39.99-39.26s17.9-39.26,39.99-39.26c5.44,0,10.63,1.07,15.36,3,10.01-12.61,27.1-20.93,48.44-19.66,14.4.85,26.18,5.88,34.75,13.3,4.14-1.96,8.74-3.25,13.66-3.7,23.21-2.1,47.3,14.73,51.03,39.77,4.1,27.41-18.05,47.71-45.58,43.52Z" style="fill: none; stroke: #000; stroke-miterlimit: 10; stroke-width: 13.74px;"/>
  <path d="m790.7,336.74c-7.28-1.1-13.83-4.07-19.25-8.24-8.65,6.5-19.76,10.24-30.96,10.24-10.33,0-20.62-3.17-28.96-8.81-6.18,5.47-14.36,8.81-23.33,8.81-19.24,0-34.84-15.31-34.84-34.2s15.6-34.21,34.84-34.21c4.74,0,9.26.93,13.38,2.62,8.72-10.99,23.61-18.23,42.2-17.13,12.55.74,22.81,5.13,30.27,11.59,3.61-1.71,7.61-2.83,11.9-3.22,20.22-1.83,41.21,12.84,44.46,34.65,3.57,23.88-15.73,41.56-39.7,37.91Z" style="fill: none; stroke: #000; stroke-miterlimit: 10; stroke-width: 11.97px;"/>
  <path d="m488.51,486.56c-6.31-.95-11.98-3.52-16.68-7.14-7.49,5.63-17.11,8.87-26.82,8.87-8.94,0-17.86-2.75-25.08-7.63-5.35,4.74-12.44,7.63-20.21,7.63-16.66,0-30.17-13.26-30.17-29.62s13.51-29.63,30.17-29.63c4.1,0,8.02.8,11.59,2.27,7.55-9.52,20.45-15.79,36.55-14.84,10.87.64,19.76,4.44,26.22,10.04,3.13-1.48,6.59-2.45,10.31-2.79,17.52-1.59,35.69,11.12,38.51,30.01,3.09,20.69-13.62,36-34.39,32.84Z" style="fill: none; stroke: #000; stroke-miterlimit: 10; stroke-width: 10.37px;"/>
</svg>